<svg xmlns="http://www.w3.org/2000/svg" viewBox="0 0 1000 700" role="img" aria-label="CubeCharging">
  <rect width="1000" height="700" rx="80" fill="#111111"/>
  <path
    fill="#ffffff"
    fill-rule="evenodd"
    clip-rule="evenodd"
    transform="translate(170 152) scale(4.6)"
    d="M32.7945 71.4149C22.8145 71.4149 14.7245 63.3249 14.7245 53.3449C14.7245 43.3649 22.8145 35.2749 32.7945 35.2749C42.7745 35.2749 50.8645 43.3649 50.8645 53.3449C50.8645 63.3249 42.7745 71.4149 32.7945 71.4149ZM66.1365 57.1949C66.1695 53.8879 66.1585 50.5809 66.0875 47.2739H66.1015C66.0855 46.5119 66.0445 45.7489 66.0235 44.9869C65.9825 43.5789 65.9365 42.1709 65.8775 40.7639C65.8265 39.5499 65.7705 38.3349 65.7065 37.1209C65.6415 35.9059 65.5625 34.6919 65.4825 33.4769C65.4155 32.4359 65.3695 31.3959 65.2915 30.3549C65.1195 28.0749 64.1265 26.0299 62.6065 24.5129C61.0895 22.9919 59.0445 21.9989 56.7635 21.8279C55.7205 21.7489 54.6785 21.7039 53.6355 21.6359C52.4245 21.5569 51.2135 21.4779 50.0025 21.4129C48.7855 21.3479 47.5675 21.2919 46.3495 21.2419C44.9455 21.1819 43.5415 21.1369 42.1365 21.0959C41.3725 21.0749 40.6085 21.0339 39.8445 21.0169V21.0319C36.5385 20.9609 33.2315 20.9489 29.9245 20.9829V20.9679C29.3275 20.9739 28.7305 20.9899 28.1325 20.9999C27.5605 21.0079 26.9885 21.0179 26.4155 21.0299C24.8195 21.0629 23.2225 21.1089 21.6255 21.1649C21.4545 21.1709 21.2825 21.1759 21.1115 21.1819C17.2085 21.3269 13.3055 21.5339 9.4025 21.8279C4.8475 22.1699 1.2325 25.7859 0.8895 30.3409C-0.2965 46.1279 -0.2965 61.9149 0.8895 77.7019C1.0615 79.9829 2.0545 82.0279 3.5745 83.5449C5.0915 85.0649 7.1365 86.0579 9.4175 86.2299C25.2045 87.4159 40.9915 87.4159 56.7785 86.2299C61.3335 85.8869 64.9495 82.2709 65.2915 77.7159C65.5845 73.8129 65.7925 69.9109 65.9375 66.0079C65.9435 65.8359 65.9485 65.6649 65.9545 65.4939C66.0105 63.8969 66.0565 62.2999 66.0895 60.7029C66.1015 60.1319 66.1105 59.5599 66.1195 58.9879C66.1285 58.3899 66.1455 57.7929 66.1515 57.1949H66.1365Z"
  />
  <text
    x="510"
    y="382"
    fill="#ffffff"
    font-family="Arial, Helvetica, sans-serif"
    font-size="96"
    font-weight="700"
    letter-spacing="0"
  >Cube</text>
</svg>
